Got to Dance, originally titled Just Dance,is a reality
talent show dance competition that has been broadcast on Sky1
in the United Kingdom and Ireland since 20 December 2009.
Auditions for the show take place in specially built Dance-
Domes and are open to all dance acts of any age, style or size.

The show is broadcast on Sky1, also in high definition, and is
hosted by Davina McCall, with Ashley Banjo, Kimberly Wyatt and
Aston Merrygold currently as judges. In series 1∩┐╜3,
Adam Garcia was a judge and was replaced by Merrygold
in series 4.The prize money is currently ∩┐╜250,000
for the winning act.





General
Complete name                            : Got.To.Dance.S04E11.Live.Shows.3.WS.DSR.XviD-W33D.avi
Format                                   : AVI
Format/Info                              : Audio Video Interleave
Format profile                           : OpenDML
Format settings                          : rec
File size                                : 527 MiB
Duration                                 : 1h 5mn
Overall bit rate mode                    : Variable
Overall bit rate                         : 1 117 Kbps
Writing application                      : AVI-Mux GUI 1.17.8.3, Feb 16 201019:42:50

Video
ID                                       : 0
Format                                   : MPEG-4 Visual
Format profile                           : Advanced Simple@L5
Format settings, BVOP                    : 1
Format settings, QPel                    : No
Format settings, GMC                     : No warppoints
Format settings, Matrix                  : Default (H.263)
Codec ID                                 : XVID
Codec ID/Hint                            : XviD
Duration                                 : 1h 5mn
Bit rate                                 : 986 Kbps
Width                                    : 640 pixels
Height                                   : 352 pixels
Display aspect ratio                     : 16:9
Frame rate                               : 25.000 fps
Color space                              : YUV
Chroma subsampling                       : 4:2:0
Bit depth                                : 8 bits
Scan type                                : Progressive
Compression mode                         : Lossy
Bits/(Pixel*Frame)                       : 0.175
Stream size                              : 465 MiB (88%)
Writing library                          : XviD 1.2.1 (UTC 2008-12-04)

Audio
ID                                       : 1
Format                                   : MPEG Audio
Format version                           : Version 1
Format profile                           : Layer 3
Mode                                     : Joint stereo
Mode extension                           : MS Stereo
Codec ID                                 : 55
Codec ID/Hint                            : MP3
Duration                                 : 1h 5mn
Bit rate mode                            : Variable
Bit rate                                 : 122 Kbps
Nominal bit rate                         : 128 Kbps
Channel(s)                               : 2 channels
Sampling rate                            : 48.0 KHz
Compression mode                         : Lossy
Stream size                              : 57.7 MiB (11%)
Alignment                                : Aligned on interleaves
Interleave, duration                     : 24 ms (0.60 video frame)
Interleave, preload duration             : 200 ms
Title                                    : Got to dance ep 11 part 1 Tc0 L2 2ch 48 384 DELAY 0ms
Writing library                          : LAME3.99r
Encoding settings                        : -m j -V 4 -q 2 -lowpass 17 --abr 128